<svg xmlns="http://www.w3.org/2000/svg" viewBox="0 0 32 32" id="Coding-Apps-Websites-Module--Streamline-Pixel"><desc>Coding Apps Websites Module Streamline Icon: https://streamlinehq.com</desc><title>coding-apps-websites-module</title><g><path d="M29.9308 9.9006H31.68V22.0994H29.9308Z" fill="#000000" stroke-width="1"></path><path d="M28.193 22.0994H29.9308V23.8371H28.193Z" fill="#000000" stroke-width="1"></path><path d="M28.193 8.1629H29.9308V9.9006H28.193Z" fill="#000000" stroke-width="1"></path><path d="M24.706 9.9006H28.193V11.6384H24.706Z" fill="#000000" stroke-width="1"></path><path d="M24.706 23.8371H28.193V25.5863H24.706Z" fill="#000000" stroke-width="1"></path><path d="M26.4552 8.1629V6.4136H24.706V4.6759H21.2305V6.4136H19.4813V8.1629H21.2305V9.9006H24.706V8.1629H26.4552Z" fill="#000000" stroke-width="1"></path><path d="M21.2305 11.6384H24.706V13.3876H21.2305Z" fill="#000000" stroke-width="1"></path><path d="M21.2305 25.5863H24.706V27.3241H21.2305Z" fill="#000000" stroke-width="1"></path><path d="M17.7435 30.8111V29.0619H21.2305V27.3241H17.7435V15.1254H14.2565V16.8746H15.9943V29.0619H14.2565V30.8111H17.7435Z" fill="#000000" stroke-width="1"></path><path d="M17.7435 13.3876H21.2305V15.1254H17.7435Z" fill="#000000" stroke-width="1"></path><path d="M17.7435 11.6384H19.4813V9.9006H17.7435V8.1628H14.2565V9.9006H12.5187V11.6384H14.2565V13.3876H17.7435V11.6384Z" fill="#000000" stroke-width="1"></path><path d="M14.2565 1.1889V2.9381H12.5187V4.6759H14.2565V6.4137H17.7435V4.6759H19.4813V2.9381H17.7435V1.1889H14.2565Z" fill="#000000" stroke-width="1"></path><path d="M10.7695 27.3241H14.2565V29.0619H10.7695Z" fill="#000000" stroke-width="1"></path><path d="M10.7695 13.3876H14.2565V15.1254H10.7695Z" fill="#000000" stroke-width="1"></path><path d="M7.294 25.5863H10.7695V27.3241H7.294Z" fill="#000000" stroke-width="1"></path><path d="M10.7695 8.1629H12.5187V6.4136H10.7695V4.6759H7.294V6.4136H5.5448V8.1629H7.294V9.9006H10.7695V8.1629Z" fill="#000000" stroke-width="1"></path><path d="M7.294 11.6384H10.7695V13.3876H7.294Z" fill="#000000" stroke-width="1"></path><path d="M3.807 23.8371H7.294V25.5863H3.807Z" fill="#000000" stroke-width="1"></path><path d="M3.807 9.9006H7.294V11.6384H3.807Z" fill="#000000" stroke-width="1"></path><path d="M2.0578 22.0994H3.807V23.8371H2.0578Z" fill="#000000" stroke-width="1"></path><path d="M2.0578 8.1629H3.807V9.9006H2.0578Z" fill="#000000" stroke-width="1"></path><path d="M0.32 9.9006H2.0578V22.0994H0.32Z" fill="#000000" stroke-width="1"></path></g></svg>