<svg xmlns="http://www.w3.org/2000/svg" viewBox="0 0 32 32" id="Interface-Essential-Signin-Login--Streamline-Pixel"><desc>Interface Essential Signin Login Streamline Icon: https://streamlinehq.com</desc><title>interface-essential-signin-login</title><g><path d="M22.7179 9.2772V10.7668H21.2185V12.2662H19.7289V13.7558H18.2393V16.7448H19.7289V18.2344H21.2185V19.7338H22.7179V21.2234H24.2075V16.7448H30.1855V13.7558H24.2075V9.2772H22.7179Z" fill="#000000" stroke-width="1"></path><path d="M21.2185 24.2124H22.7179V27.2014H21.2185Z" fill="#000000" stroke-width="1"></path><path d="M21.2185 1.8096H22.7179V6.2882H21.2185Z" fill="#000000" stroke-width="1"></path><path d="M15.2503 30.1806V28.691H21.2185V27.2014H15.2503V7.7876H13.7607V30.1806H15.2503Z" fill="#000000" stroke-width="1"></path><path d="M9.2723 30.1806H13.7607V31.68H9.2723Z" fill="#000000" stroke-width="1"></path><path d="M10.7717 16.7448H12.2613V19.7338H10.7717Z" fill="#000000" stroke-width="1"></path><path d="M10.7717 6.2882H13.7607V7.7876H10.7717Z" fill="#000000" stroke-width="1"></path><path d="M6.2931 28.691H9.2723V30.1806H6.2931Z" fill="#000000" stroke-width="1"></path><path d="M7.7827 4.7986H10.7717V6.2882H7.7827Z" fill="#000000" stroke-width="1"></path><path d="M3.3041 27.2014H6.2931V28.691H3.3041Z" fill="#000000" stroke-width="1"></path><path d="M4.7937 3.309H7.7827V4.7986H4.7937Z" fill="#000000" stroke-width="1"></path><path d="M3.3041 0.32V1.8096H1.8145V27.2014H3.3041V3.309H4.7937V1.8096H21.2185V0.32H3.3041Z" fill="#000000" stroke-width="1"></path></g></svg>