<svg xmlns="http://www.w3.org/2000/svg" viewBox="0 0 32 32" id="Interface-Essential-Refresh--Streamline-Pixel"><desc>Interface Essential Refresh Streamline Icon: https://streamlinehq.com</desc><title>interface-essential-refresh</title><g><path d="M29.8396 11.3868H31.68V20.6132H29.8396Z" fill="#000000" stroke-width="1"></path><path d="M27.9991 20.6132H29.8396V24.3062H27.9991Z" fill="#000000" stroke-width="1"></path><path d="M27.9991 7.6938H29.8396V11.3868H27.9991Z" fill="#000000" stroke-width="1"></path><path d="M29.8396 5.8534V4.013H31.68V2.1604H22.4536V11.3868H24.3062V9.5464H26.1466V7.6938H27.9991V5.8534H29.8396Z" fill="#000000" stroke-width="1"></path><path d="M26.1466 24.3062H27.9991V26.1466H26.1466Z" fill="#000000" stroke-width="1"></path><path d="M24.3062 26.1466H26.1466V27.9991H24.3062Z" fill="#000000" stroke-width="1"></path><path d="M20.6132 27.9991H24.3062V29.8396H20.6132Z" fill="#000000" stroke-width="1"></path><path d="M13.2272 29.8396H20.6132V31.68H13.2272Z" fill="#000000" stroke-width="1"></path><path d="M11.3868 0.32H18.7728V2.1604H11.3868Z" fill="#000000" stroke-width="1"></path><path d="M7.6938 2.1604H11.3868V4.013H7.6938Z" fill="#000000" stroke-width="1"></path><path d="M5.8534 4.013H7.6938V5.8534H5.8534Z" fill="#000000" stroke-width="1"></path><path d="M4.013 5.8534H5.8534V7.6938H4.013Z" fill="#000000" stroke-width="1"></path><path d="M2.1604 26.1466V27.9991H0.32V29.8396H9.5464V20.6132H7.6938V22.4536H5.8534V24.3062H4.013V26.1466H2.1604Z" fill="#000000" stroke-width="1"></path><path d="M2.1604 20.6132H4.013V24.3062H2.1604Z" fill="#000000" stroke-width="1"></path><path d="M2.1604 7.6938H4.013V11.3868H2.1604Z" fill="#000000" stroke-width="1"></path><path d="M0.32 11.3868H2.1604V20.6132H0.32Z" fill="#000000" stroke-width="1"></path></g></svg>