<svg xmlns="http://www.w3.org/2000/svg" viewBox="0 0 32 32" id="Interface-Essential-Shrink-3--Streamline-Pixel"><desc>Interface Essential Shrink 3 Streamline Icon: https://streamlinehq.com</desc><title>interface-essential-shrink-3</title><g><path d="M16.7448 18.2344H18.2442V30.1806H16.7448Z" fill="#000000" stroke-width="1"></path><path d="M18.2442 30.1806H21.2332V31.68H18.2442Z" fill="#000000" stroke-width="1"></path><path d="M18.2442 16.7448H30.1904V18.2344H18.2442Z" fill="#000000" stroke-width="1"></path><path d="M22.7228 25.702V24.2124H21.2332V30.1806H22.7228V27.2014H24.2124V25.702H22.7228Z" fill="#000000" stroke-width="1"></path><path d="M24.2124 27.2014H25.7118V28.691H24.2124Z" fill="#000000" stroke-width="1"></path><path d="M25.7118 28.691H27.2014V30.1806H25.7118Z" fill="#000000" stroke-width="1"></path><path d="M24.2124 21.2234V22.7228H25.7118V24.2124H27.2014V22.7228H30.1904V21.2234H24.2124Z" fill="#000000" stroke-width="1"></path><path d="M27.2014 24.2124H28.7008V25.702H27.2014Z" fill="#000000" stroke-width="1"></path><path d="M27.2014 30.1806H30.1904V31.68H27.2014Z" fill="#000000" stroke-width="1"></path><path d="M30.1904 27.2014V30.1806H31.68V25.702H28.7008V27.2014H30.1904Z" fill="#000000" stroke-width="1"></path><path d="M30.1904 18.2344H31.68V21.2234H30.1904Z" fill="#000000" stroke-width="1"></path><path d="M16.7448 1.8194H18.2442V13.7656H16.7448Z" fill="#000000" stroke-width="1"></path><path d="M18.2442 0.32H21.2332V1.8194H18.2442Z" fill="#000000" stroke-width="1"></path><path d="M21.2332 7.7876H22.7228V6.298H24.2124V4.7986H22.7228V1.8194H21.2332V7.7876Z" fill="#000000" stroke-width="1"></path><path d="M24.2124 3.309H25.7118V4.7986H24.2124Z" fill="#000000" stroke-width="1"></path><path d="M25.7118 1.8194H27.2014V3.309H25.7118Z" fill="#000000" stroke-width="1"></path><path d="M25.7118 9.287H24.2124V10.7766H30.1904V9.287H27.2014V7.7876H25.7118V9.287Z" fill="#000000" stroke-width="1"></path><path d="M27.2014 6.298H28.7008V7.7876H27.2014Z" fill="#000000" stroke-width="1"></path><path d="M18.2442 13.7656H30.1904V15.2552H18.2442Z" fill="#000000" stroke-width="1"></path><path d="M27.2014 0.32H30.1904V1.8194H27.2014Z" fill="#000000" stroke-width="1"></path><path d="M28.7008 4.7986H30.1904V6.298H28.7008Z" fill="#000000" stroke-width="1"></path><path d="M30.1904 1.8194H31.68V4.7986H30.1904Z" fill="#000000" stroke-width="1"></path><path d="M30.1904 10.7766H31.68V13.7656H30.1904Z" fill="#000000" stroke-width="1"></path><path d="M0.32 10.7766H1.8096V13.7656H0.32Z" fill="#000000" stroke-width="1"></path><path d="M0.32 1.8194H1.8096V4.7986H0.32Z" fill="#000000" stroke-width="1"></path><path d="M1.8096 4.7986H3.2992V6.298H1.8096Z" fill="#000000" stroke-width="1"></path><path d="M1.8096 0.32H4.7986V1.8194H1.8096Z" fill="#000000" stroke-width="1"></path><path d="M1.8096 13.7656H13.7558V15.2552H1.8096Z" fill="#000000" stroke-width="1"></path><path d="M3.2992 6.298H4.7986V7.7876H3.2992Z" fill="#000000" stroke-width="1"></path><path d="M7.7876 9.2772H6.2882V7.7876H4.7986V9.2772H1.8096V10.7766H7.7876V9.2772Z" fill="#000000" stroke-width="1"></path><path d="M4.7986 1.8194H6.2882V3.309H4.7986Z" fill="#000000" stroke-width="1"></path><path d="M6.2882 3.309H7.7876V4.7986H6.2882Z" fill="#000000" stroke-width="1"></path><path d="M9.2772 6.298V7.7876H10.7668V1.8194H9.2772V4.7986H7.7876V6.298H9.2772Z" fill="#000000" stroke-width="1"></path><path d="M10.7668 0.32H13.7558V1.8194H10.7668Z" fill="#000000" stroke-width="1"></path><path d="M13.7558 1.8194H15.2454V13.7656H13.7558Z" fill="#000000" stroke-width="1"></path><path d="M0.32 27.2014H1.8096V30.1806H0.32Z" fill="#000000" stroke-width="1"></path><path d="M0.32 18.2344H1.8096V21.2234H0.32Z" fill="#000000" stroke-width="1"></path><path d="M1.8096 25.702H3.2992V27.2014H1.8096Z" fill="#000000" stroke-width="1"></path><path d="M1.8096 30.1806H4.7986V31.68H1.8096Z" fill="#000000" stroke-width="1"></path><path d="M3.2992 24.2124H4.7986V25.702H3.2992Z" fill="#000000" stroke-width="1"></path><path d="M6.2882 22.713H7.7876V21.2234H1.8096V22.713H4.7986V24.2124H6.2882V22.713Z" fill="#000000" stroke-width="1"></path><path d="M4.7986 28.691H6.2882V30.1806H4.7986Z" fill="#000000" stroke-width="1"></path><path d="M6.2882 27.2014H7.7876V28.691H6.2882Z" fill="#000000" stroke-width="1"></path><path d="M9.2772 24.2124V25.702H7.7876V27.2014H9.2772V30.1806H10.7668V24.2124H9.2772Z" fill="#000000" stroke-width="1"></path><path d="M1.8096 16.7448H13.7558V18.2344H1.8096Z" fill="#000000" stroke-width="1"></path><path d="M10.7668 30.1806H13.7558V31.68H10.7668Z" fill="#000000" stroke-width="1"></path><path d="M13.7558 18.2344H15.2454V30.1806H13.7558Z" fill="#000000" stroke-width="1"></path></g></svg>