<svg xmlns="http://www.w3.org/2000/svg" viewBox="0 0 32 32" id="Interface-Essential-Link--Streamline-Pixel"><desc>Interface Essential Link Streamline Icon: https://streamlinehq.com</desc><title>interface-essential-link</title><g><path d="M29.9422 21.2305H31.68V28.193H29.9422Z" fill="#000000" stroke-width="1"></path><path d="M28.193 28.193H29.9422V29.9422H28.193Z" fill="#000000" stroke-width="1"></path><path d="M28.193 19.4927H29.9422V21.2305H28.193Z" fill="#000000" stroke-width="1"></path><path d="M26.4552 17.7435H28.193V19.4927H26.4552Z" fill="#000000" stroke-width="1"></path><path d="M21.2305 29.9422H28.193V31.68H21.2305Z" fill="#000000" stroke-width="1"></path><path d="M24.706 16.0057H26.4552V17.7435H24.706Z" fill="#000000" stroke-width="1"></path><path d="M19.4813 14.2565H24.706V16.0057H19.4813Z" fill="#000000" stroke-width="1"></path><path d="M19.4813 28.193H21.2305V29.9422H19.4813Z" fill="#000000" stroke-width="1"></path><path d="M17.7435 26.4552H19.4813V28.193H17.7435Z" fill="#000000" stroke-width="1"></path><path d="M14.2565 10.781H10.7695V14.2565H12.5187V16.0057H14.2565V17.7435H16.0057V19.4927H17.7435V21.2305H21.2305V17.7435H19.4813V16.0057H17.7435V14.2565H16.0057V12.5187H14.2565V10.7809Z" fill="#000000" stroke-width="1"></path><path d="M16.0057 24.7175H17.7435V26.4552H16.0057Z" fill="#000000" stroke-width="1"></path><path d="M16.0057 7.294H17.7435V12.5187H16.0057Z" fill="#000000" stroke-width="1"></path><path d="M14.2565 19.4927H16.0057V24.7175H14.2565Z" fill="#000000" stroke-width="1"></path><path d="M14.2565 5.5562H16.0057V7.294H14.2565Z" fill="#000000" stroke-width="1"></path><path d="M12.5187 3.807H14.2565V5.5562H12.5187Z" fill="#000000" stroke-width="1"></path><path d="M10.7695 2.0692H12.5187V3.807H10.7695Z" fill="#000000" stroke-width="1"></path><path d="M7.294 16.0057H12.5187V17.7435H7.294Z" fill="#000000" stroke-width="1"></path><path d="M5.5448 14.2565H7.294V16.0057H5.5448Z" fill="#000000" stroke-width="1"></path><path d="M3.807 0.32H10.7695V2.0692H3.807Z" fill="#000000" stroke-width="1"></path><path d="M3.807 12.5187H5.5448V14.2565H3.807Z" fill="#000000" stroke-width="1"></path><path d="M2.0692 10.781H3.807V12.5187H2.0692Z" fill="#000000" stroke-width="1"></path><path d="M2.0692 2.0692H3.807V3.807H2.0692Z" fill="#000000" stroke-width="1"></path><path d="M0.32 3.807H2.0692V10.781H0.32Z" fill="#000000" stroke-width="1"></path></g></svg>