<svg xmlns="http://www.w3.org/2000/svg" viewBox="0 0 32 32" id="Interface-Essential-Clip-1--Streamline-Pixel"><desc>Interface Essential Clip 1 Streamline Icon: https://streamlinehq.com</desc><title>interface-essential-clip-1</title><g><path d="M29.9308 7.2882H31.68V14.2508H29.9308Z" fill="#000000" stroke-width="1"></path><path d="M28.193 14.2508H29.9308V17.7378H28.193Z" fill="#000000" stroke-width="1"></path><path d="M28.193 5.5505H29.9308V7.2883H28.193Z" fill="#000000" stroke-width="1"></path><path d="M26.4552 17.7378H28.193V19.487H26.4552Z" fill="#000000" stroke-width="1"></path><path d="M26.4552 3.8013H28.193V5.5505H26.4552Z" fill="#000000" stroke-width="1"></path><path d="M24.706 19.487H26.4552V21.2248H24.706Z" fill="#000000" stroke-width="1"></path><path d="M24.706 9.026H26.4552V14.2508H24.706Z" fill="#000000" stroke-width="1"></path><path d="M19.4813 2.0635H26.4552V3.8013H19.4813Z" fill="#000000" stroke-width="1"></path><path d="M22.9682 21.2248H24.706V22.9625H22.9682Z" fill="#000000" stroke-width="1"></path><path d="M22.9682 14.2508H24.706V16H22.9682Z" fill="#000000" stroke-width="1"></path><path d="M19.4813 7.2882H24.706V9.026H19.4813Z" fill="#000000" stroke-width="1"></path><path d="M21.219 22.9625H22.9683V24.7117H21.219Z" fill="#000000" stroke-width="1"></path><path d="M21.219 16H22.9683V17.7378H21.219Z" fill="#000000" stroke-width="1"></path><path d="M19.4813 24.7117H21.219V26.4495H19.4813Z" fill="#000000" stroke-width="1"></path><path d="M19.4813 17.7378H21.219V19.487H19.4813Z" fill="#000000" stroke-width="1"></path><path d="M17.7435 26.4495H19.4813V28.1987H17.7435Z" fill="#000000" stroke-width="1"></path><path d="M17.7435 19.487H19.4813V21.2248H17.7435Z" fill="#000000" stroke-width="1"></path><path d="M17.7435 9.026H19.4813V10.7752H17.7435Z" fill="#000000" stroke-width="1"></path><path d="M15.9943 21.2248H17.7435V22.9625H15.9943Z" fill="#000000" stroke-width="1"></path><path d="M15.9943 10.7752H17.7435V12.513H15.9943Z" fill="#000000" stroke-width="1"></path><path d="M15.9943 3.8013H19.4813V5.5505H15.9943Z" fill="#000000" stroke-width="1"></path><path d="M14.2565 22.9625H15.9943V24.7117H14.2565Z" fill="#000000" stroke-width="1"></path><path d="M14.2565 12.513H15.9943V14.2508H14.2565Z" fill="#000000" stroke-width="1"></path><path d="M14.2565 5.5505H15.9943V7.2883H14.2565Z" fill="#000000" stroke-width="1"></path><path d="M12.5073 24.7117H14.2565V26.4495H12.5073Z" fill="#000000" stroke-width="1"></path><path d="M12.5073 14.2508H14.2565V16H12.5073Z" fill="#000000" stroke-width="1"></path><path d="M12.5073 7.2882H14.2565V9.026H12.5073Z" fill="#000000" stroke-width="1"></path><path d="M10.7695 26.4495H12.5073V28.1987H10.7695Z" fill="#000000" stroke-width="1"></path><path d="M10.7695 16H12.5073V17.7378H10.7695Z" fill="#000000" stroke-width="1"></path><path d="M10.7695 9.026H12.5073V10.7752H10.7695Z" fill="#000000" stroke-width="1"></path><path d="M9.0317 17.7378H10.7695V19.487H9.0317Z" fill="#000000" stroke-width="1"></path><path d="M9.0317 10.7752H10.7695V12.513H9.0317Z" fill="#000000" stroke-width="1"></path><path d="M7.2825 12.513H9.0317V14.2508H7.2825Z" fill="#000000" stroke-width="1"></path><path d="M5.5448 14.2508H7.2825V16H5.5448Z" fill="#000000" stroke-width="1"></path><path d="M3.807 28.1987H10.7695V29.9365H3.807Z" fill="#000000" stroke-width="1"></path><path d="M3.807 16H5.5448V17.7378H3.807Z" fill="#000000" stroke-width="1"></path><path d="M2.0578 26.4495H3.807V28.1987H2.0578Z" fill="#000000" stroke-width="1"></path><path d="M2.0578 17.7378H3.807V19.487H2.0578Z" fill="#000000" stroke-width="1"></path><path d="M0.32 19.487H2.0578V26.4495H0.32Z" fill="#000000" stroke-width="1"></path></g></svg>