<svg xmlns="http://www.w3.org/2000/svg" viewBox="0 0 32 32" id="Content-Files-Pdf--Streamline-Pixel"><desc>Content Files Pdf Streamline Icon: https://streamlinehq.com</desc><title>content-files-pdf</title><g><path d="M28.6871 6.298H24.2065V1.8145H25.7059V0.32H4.7947V12.276H3.3051V13.7656H4.7947V16.7546H3.3051V13.7656H1.8155V25.7118H3.3051V27.2014H4.7947V31.68H30.1845V4.8035H28.6851ZM6.2941 18.2393H10.7727V22.7179H7.7837V25.7069H6.2941ZM28.6871 30.1855H6.2941V27.1965H24.2065V25.7069H25.7059V18.2393H24.2065V16.7497H6.2941V1.8145H22.7189V7.7827H28.6871ZM16.7409 19.7289V24.2173H15.2513V25.7069H12.2623V18.2393H15.2513V19.7289ZM22.7189 21.2283V22.7179H19.7299V25.7069H18.2403V18.2393H22.7189V19.7289H19.7299V21.2283Z" fill="#000000" stroke-width="1"></path><path d="M27.1975 3.3041H28.6871V4.8035H27.1975Z" fill="#000000" stroke-width="1"></path><path d="M25.7079 1.8145H27.1975V3.3041H25.7079Z" fill="#000000" stroke-width="1"></path><path d="M13.7617 19.7289H15.2513V24.2173H13.7617Z" fill="#000000" stroke-width="1"></path><path d="M7.7837 19.7289H9.2831V21.2283H7.7837Z" fill="#000000" stroke-width="1"></path></g></svg>