<svg xmlns="http://www.w3.org/2000/svg" viewBox="0 0 32 32" id="Content-Files-Newspaper--Streamline-Pixel"><desc>Content Files Newspaper Streamline Icon: https://streamlinehq.com</desc><title>content-files-newspaper</title><g><path d="M30.1806 8.5373H31.68V27.9511H30.1806Z" fill="#000000" stroke-width="1"></path><path d="M28.691 27.9511H30.1806V29.4407H28.691Z" fill="#000000" stroke-width="1"></path><path d="M27.2014 11.5263H28.691V26.4517H27.2014Z" fill="#000000" stroke-width="1"></path><path d="M27.2014 27.9511H25.702V29.4407H3.309V30.9303H28.691V29.4407H27.2014V27.9511Z" fill="#000000" stroke-width="1"></path><path d="M24.2124 27.9511H25.702V8.5373H30.1806V7.0379H25.702V2.5593H24.2124V27.9511Z" fill="#000000" stroke-width="1"></path><path d="M6.2882 26.4517H22.7228V27.9511H6.2882Z" fill="#000000" stroke-width="1"></path><path d="M18.2344 14.5055H22.7228V18.9841H18.2344Z" fill="#000000" stroke-width="1"></path><path d="M12.2662 14.5055H16.7448V16.0049H12.2662Z" fill="#000000" stroke-width="1"></path><path d="M12.2662 17.4945H16.7448V18.9841H12.2662Z" fill="#000000" stroke-width="1"></path><path d="M3.309 23.4725H22.7228V24.9621H3.309Z" fill="#000000" stroke-width="1"></path><path d="M3.309 20.4835H22.7228V21.9731H3.309Z" fill="#000000" stroke-width="1"></path><path d="M3.309 17.4945H10.7766V18.9841H3.309Z" fill="#000000" stroke-width="1"></path><path d="M3.309 14.5055H10.7766V16.0049H3.309Z" fill="#000000" stroke-width="1"></path><path d="M22.7228 13.0159V5.5532H3.309V13.0208ZM4.7986 7.0379H10.7766V8.5373H9.2772V10.0269H7.7876V11.5312H4.7986Z" fill="#000000" stroke-width="1"></path><path d="M1.8096 1.0697H24.2124V2.5593H1.8096Z" fill="#000000" stroke-width="1"></path><path d="M1.8096 27.9511H3.309V29.4407H1.8096Z" fill="#000000" stroke-width="1"></path><path d="M0.32 2.5593H1.8096V27.9511H0.32Z" fill="#000000" stroke-width="1"></path></g></svg>