<svg xmlns="http://www.w3.org/2000/svg" viewBox="0 0 32 32" id="Video-Movies-Player--Streamline-Pixel"><desc>Video Movies Player Streamline Icon: https://streamlinehq.com</desc><title>video-movies-player</title><g><path d="M30.1058 6.5858H31.68V25.4039H30.1058Z" fill="#000000" stroke-width="1"></path><path d="M28.5419 25.4039H30.1058V26.9678H28.5419Z" fill="#000000" stroke-width="1"></path><path d="M28.5419 5.0219H30.1058V6.5858H28.5419Z" fill="#000000" stroke-width="1"></path><path d="M3.4591 26.9678H28.543V28.5419H3.4591Z" fill="#000000" stroke-width="1"></path><path d="M20.703 12.8619H19.1391V11.2981H17.5639V9.7239H16V8.16H11.2981V23.84H16V22.2658H17.5639V20.702H19.1391V19.1278H20.703V17.5639H22.2658V14.4258H20.703V12.862Z" fill="#000000" stroke-width="1"></path><path d="M3.4591 3.4581H28.543V5.0219H3.4591Z" fill="#000000" stroke-width="1"></path><path d="M1.8839 25.4039H3.4581V26.9678H1.8839Z" fill="#000000" stroke-width="1"></path><path d="M1.8839 5.0219H3.4581V6.5858H1.8839Z" fill="#000000" stroke-width="1"></path><path d="M0.32 6.5858H1.8839V25.4039H0.32Z" fill="#000000" stroke-width="1"></path></g></svg>