<svg xmlns="http://www.w3.org/2000/svg" viewBox="0 0 32 32" id="Video-Movies-Square-Off--Streamline-Pixel"><desc>Video Movies Square Off Streamline Icon: https://streamlinehq.com</desc><title>video-movies-square-off</title><g><path d="M30.1904 3.31H31.68V28.692H30.1904Z" fill="#000000" stroke-width="1"></path><path d="M28.691 28.692H30.1904V30.1816H28.691Z" fill="#000000" stroke-width="1"></path><path d="M3.309 30.1806H28.691V31.68H3.309Z" fill="#000000" stroke-width="1"></path><path d="M25.702 12.2672H27.2014V19.7348H25.702V21.2244H28.691V10.7678H25.702V12.2672Z" fill="#000000" stroke-width="1"></path><path d="M24.2124 18.2354H25.702V19.7348H24.2124Z" fill="#000000" stroke-width="1"></path><path d="M24.2124 12.2672H25.702V13.7568H24.2124Z" fill="#000000" stroke-width="1"></path><path d="M22.7228 16.7448V15.2552H24.2124V13.7568H21.2234V22.714H22.7228V18.2354H24.2124V16.7448H22.7228Z" fill="#000000" stroke-width="1"></path><path d="M12.2662 22.714H21.2234V24.2134H12.2662Z" fill="#000000" stroke-width="1"></path><path d="M4.7986 7.7886H19.7338V9.2782H4.7986Z" fill="#000000" stroke-width="1"></path><path d="M18.2442 18.2354H16.7448V19.7348H15.2552V21.2244H18.2442V18.2354Z" fill="#000000" stroke-width="1"></path><path d="M9.2772 10.7678H10.7766V12.2672H9.2772Z" fill="#000000" stroke-width="1"></path><path d="M7.7876 18.2354H9.2772V16.7448H10.7766V15.2552H12.2662V13.7568H6.2882V19.7348H7.7876V18.2354Z" fill="#000000" stroke-width="1"></path><path d="M6.2882 10.7678H7.7876V12.2672H6.2882Z" fill="#000000" stroke-width="1"></path><path d="M4.7986 28.692V27.2024H6.2882V25.703H7.7876V24.2134H9.2772V22.714H10.7766V21.2244H12.2662V19.7348H13.7558V18.2354H15.2552V16.7448H16.7448V15.2552H18.2442V13.7568H19.7338V12.2672H21.2234V10.7678H22.7228V9.2782H24.2124V7.7886H25.702V6.2892H27.2014V4.7996H28.691V3.31H30.1904V1.8106H28.691V0.32H3.309V1.8106H27.2014V3.31H25.702V4.7996H24.2124V6.2892H22.7228V7.7886H21.2234V9.2782H19.7338V10.7678H18.2442V12.2672H16.7448V13.7568H15.2552V15.2552H13.7558V16.7448H12.2662V18.2354H10.7766V19.7348H9.2772V21.2244H7.7876V22.714H6.2882V24.2134H4.7986V25.703H3.309V27.2024H1.8096V3.31H0.32V28.692H1.8096V30.1806H3.309V28.692H4.7986Z" fill="#000000" stroke-width="1"></path><path d="M3.309 9.2782H4.7986V22.714H3.309Z" fill="#000000" stroke-width="1"></path><path d="M1.8096 1.8106H3.309V3.31H1.8096Z" fill="#000000" stroke-width="1"></path></g></svg>