<svg xmlns="http://www.w3.org/2000/svg" viewBox="0 0 32 32" id="Video-Movies-Vintage-Tv-1--Streamline-Pixel"><desc>Video Movies Vintage Tv 1 Streamline Icon: https://streamlinehq.com</desc><title>video-movies-vintage-tv-1</title><g><path d="M30.1904 14.5055H31.68V23.4627H30.1904Z" fill="#000000" stroke-width="1"></path><path d="M28.691 23.4627H30.1904V24.9621H28.691Z" fill="#000000" stroke-width="1"></path><path d="M28.691 13.0061H30.1904V14.5055H28.691Z" fill="#000000" stroke-width="1"></path><path d="M27.2014 24.9621H28.691V27.9413H27.2014Z" fill="#000000" stroke-width="1"></path><path d="M27.2014 10.0269H28.691V13.0061H27.2014Z" fill="#000000" stroke-width="1"></path><path d="M22.7228 27.9413V10.0269H27.2014V8.5275H15.2542V7.0379H13.7646V8.5275H9.2772V7.0379H7.7876V8.5275H1.8184V10.0269H21.2234V27.9413H1.8184V29.4407H27.2014V27.9413H22.7228Z" fill="#000000" stroke-width="1"></path><path d="M24.2124 23.4627H25.7118V24.9621H24.2124Z" fill="#000000" stroke-width="1"></path><path d="M24.2124 20.4737H25.7118V21.9731H24.2124Z" fill="#000000" stroke-width="1"></path><path d="M24.2124 15.9951H25.7118V17.4945H24.2124Z" fill="#000000" stroke-width="1"></path><path d="M24.2124 13.0061H25.7118V14.5055H24.2124Z" fill="#000000" stroke-width="1"></path><path d="M15.2542 2.5593H16.7438V4.0489H15.2542Z" fill="#000000" stroke-width="1"></path><path d="M13.7646 4.0489H15.2542V5.5483H13.7646Z" fill="#000000" stroke-width="1"></path><path d="M9.2772 5.5483H13.7656V7.0379H9.2772Z" fill="#000000" stroke-width="1"></path><path d="M7.7876 4.0489H9.2772V5.5483H7.7876Z" fill="#000000" stroke-width="1"></path><path d="M6.298 2.5593H7.7876V4.0489H6.298Z" fill="#000000" stroke-width="1"></path><path d="M18.2432 11.5165H4.7957V13.0061H3.308V24.9621H4.7957V26.4517H18.2413V24.9621H19.7309V13.0061H18.2413ZM12.2662 16H13.7646V17.4994H12.2662ZM7.7876 16H9.2772V17.4994H7.7876ZM15.2542 20.4786H13.7646V21.978H7.7866V20.4786H6.298V18.989H7.7876V20.4786H13.7656V18.989H15.2552ZM18.2432 17.4994H16.7438V14.5104H13.7646V13.011H16.7438V14.5104H18.2432Z" fill="#000000" stroke-width="1"></path><path d="M0.32 10.0269H1.8194V27.9413H0.32Z" fill="#000000" stroke-width="1"></path></g></svg>