<svg xmlns="http://www.w3.org/2000/svg" viewBox="0 0 32 32" id="Weather-Moon--Streamline-Pixel"><desc>Weather Moon Streamline Icon: https://streamlinehq.com</desc><title>weather-moon</title><g><path d="M29.8342 11.3825H31.6739V20.6054H29.8342Z" fill="#000000" stroke-width="1"></path><path d="M27.9824 20.6054H29.8342V24.2969H27.9824Z" fill="#000000" stroke-width="1"></path><path d="M27.9824 7.7031H29.8342V11.3825H27.9824Z" fill="#000000" stroke-width="1"></path><path d="M26.1427 24.2969H27.9824V26.1366H26.1427Z" fill="#000000" stroke-width="1"></path><path d="M26.1427 5.8513H27.9824V7.7031H26.1427Z" fill="#000000" stroke-width="1"></path><path d="M24.2909 26.1366H26.1427V27.9885H24.2909Z" fill="#000000" stroke-width="1"></path><path d="M24.2909 16.9259H26.1427V18.7656H24.2909Z" fill="#000000" stroke-width="1"></path><path d="M24.2909 4.0115H26.1427V5.8513H24.2909Z" fill="#000000" stroke-width="1"></path><path d="M20.6114 11.3825H24.2908V15.0741H20.6114Z" fill="#000000" stroke-width="1"></path><path d="M20.6114 27.9885H24.2908V29.8282H20.6114Z" fill="#000000" stroke-width="1"></path><path d="M20.6114 7.7031H22.4511V9.5428H20.6114Z" fill="#000000" stroke-width="1"></path><path d="M20.6114 2.1597H24.2908V4.0116H20.6114Z" fill="#000000" stroke-width="1"></path><path d="M11.3886 29.8282H20.6114V31.68H11.3886Z" fill="#000000" stroke-width="1"></path><path d="M16.9199 20.6054H20.6114V24.2969H16.9199Z" fill="#000000" stroke-width="1"></path><path d="M13.2283 26.1366H15.0801V27.9885H13.2283Z" fill="#000000" stroke-width="1"></path><path d="M13.2283 15.0741H15.0801V16.9259H13.2283Z" fill="#000000" stroke-width="1"></path><path d="M11.3886 0.32H20.6114V2.1597H11.3886Z" fill="#000000" stroke-width="1"></path><path d="M11.3886 5.8513H15.0801V9.5428H11.3886Z" fill="#000000" stroke-width="1"></path><path d="M7.697 27.9885H11.3886V29.8282H7.697Z" fill="#000000" stroke-width="1"></path><path d="M9.5368 22.4572H11.3886V24.2969H9.5368Z" fill="#000000" stroke-width="1"></path><path d="M7.697 2.1597H11.3886V4.0116H7.697Z" fill="#000000" stroke-width="1"></path><path d="M5.8573 26.1366H7.697V27.9885H5.8573Z" fill="#000000" stroke-width="1"></path><path d="M5.8573 11.3825H7.697V13.2344H5.8573Z" fill="#000000" stroke-width="1"></path><path d="M5.8573 4.0115H7.697V5.8513H5.8573Z" fill="#000000" stroke-width="1"></path><path d="M4.0055 24.2969H5.8573V26.1366H4.0055Z" fill="#000000" stroke-width="1"></path><path d="M4.0055 15.0741H7.697V18.7656H4.0055Z" fill="#000000" stroke-width="1"></path><path d="M4.0055 5.8513H5.8573V7.7031H4.0055Z" fill="#000000" stroke-width="1"></path><path d="M2.1658 20.6054H4.0055V24.2969H2.1658Z" fill="#000000" stroke-width="1"></path><path d="M2.1658 7.7031H4.0055V11.3825H2.1658Z" fill="#000000" stroke-width="1"></path><path d="M0.3261 11.3825H2.1658V20.6054H0.3261Z" fill="#000000" stroke-width="1"></path></g></svg>