<svg xmlns="http://www.w3.org/2000/svg" viewBox="0 0 32 32" id="Hand-Fiist--Streamline-Pixel"><desc>Hand Fiist Streamline Icon: https://streamlinehq.com</desc><title>hand-fiist</title><g><path d="M25.8016 13.0672V15.0224H29.7248V20.9008H31.68V7.176H29.7248V13.0672H25.8016Z" fill="#000000" stroke-width="1"></path><path d="M27.7568 24.824H8.1664V22.8688H6.1984V24.824H4.2432V30.7024H31.68V24.824H29.7248V20.9008H27.7568ZM27.7568 28.7472H23.8464V26.7792H27.7568Z" fill="#000000" stroke-width="1"></path><path d="M27.7568 5.2208H29.7248V7.176H27.7568Z" fill="#000000" stroke-width="1"></path><path d="M23.8464 13.0672H25.8016V5.2208H27.7568V3.2656H23.8464V13.0672Z" fill="#000000" stroke-width="1"></path><path d="M19.9232 13.0672H23.8464V15.0224H19.9232Z" fill="#000000" stroke-width="1"></path><path d="M10.1216 15.0224H16V16.9776H10.1216Z" fill="#000000" stroke-width="1"></path><path d="M12.0768 7.176H10.1216V9.144H14.0448V3.2656H17.968V9.144H14.0448V11.0992H16V15.0224H17.968V13.0672H19.9232V3.2656H23.8464V1.2976H8.1664V3.2656H12.0768V7.176Z" fill="#000000" stroke-width="1"></path><path d="M8.1664 13.0672H10.1216V15.0224H8.1664Z" fill="#000000" stroke-width="1"></path><path d="M10.1216 7.176V5.2208H8.1664V3.2656H6.1984V5.2208H4.2432V7.176H10.1216Z" fill="#000000" stroke-width="1"></path><path d="M4.2432 20.9008H6.1984V22.8688H4.2432Z" fill="#000000" stroke-width="1"></path><path d="M2.288 16.9776H4.2432V20.9008H2.288Z" fill="#000000" stroke-width="1"></path><path d="M2.288 7.176H4.2432V9.144H2.288Z" fill="#000000" stroke-width="1"></path><path d="M0.32 9.144H2.288V16.9776H0.32Z" fill="#000000" stroke-width="1"></path></g></svg>